<svg width="24" height="24" viewBox="0 0 24 24" fill="none" xmlns="http://www.w3.org/2000/svg">
<path d="M16.7116 4.32989C17.3114 4.69928 17.8658 5.1376 18.3636 5.63589C18.8736 6.14589 19.3076 6.69989 19.6696 7.28789M16.7116 4.32989L13.2636 8.46789M16.7116 4.32989C15.2937 3.46044 13.6629 3.00024 11.9996 3.00024C10.3364 3.00024 8.70556 3.46044 7.28765 4.32989M19.6696 7.28789L15.5316 10.7359M19.6696 7.28789C20.5391 8.70581 20.9993 10.3366 20.9993 11.9999C20.9993 13.6632 20.5391 15.294 19.6696 16.7119M15.5316 10.7359C15.345 10.2136 15.0444 9.73951 14.6516 9.34789C14.26 8.9552 13.7859 8.6546 13.2636 8.46789M15.5316 10.7359C15.823 11.5534 15.823 12.4464 15.5316 13.2639M13.2636 8.46789C12.4462 8.17654 11.5531 8.17654 10.7356 8.46789M15.5316 13.2639C15.3506 13.7699 15.0566 14.2459 14.6516 14.6519C14.26 15.0446 13.7859 15.3452 13.2636 15.5319M15.5316 13.2639L19.6696 16.7119M19.6696 16.7119C19.3003 17.3116 18.8619 17.8661 18.3636 18.3639C17.8536 18.8739 17.2996 19.3079 16.7116 19.6699M16.7116 19.6699L13.2636 15.5319M16.7116 19.6699C15.2937 20.5393 13.6629 20.9995 11.9996 20.9995C10.3364 20.9995 8.70556 20.5393 7.28765 19.6699M13.2636 15.5319C12.4462 15.8233 11.5531 15.8233 10.7356 15.5319M10.7356 15.5319C10.2134 15.3452 9.73926 15.0446 9.34765 14.6519C8.95495 14.2603 8.65435 13.7861 8.46765 13.2639M10.7356 15.5319L7.28765 19.6699M7.28765 19.6699C6.6879 19.3005 6.13346 18.8622 5.63565 18.3639C5.13735 17.8661 4.69904 17.3116 4.32965 16.7119M4.32965 16.7119L8.46765 13.2639M4.32965 16.7119C3.46019 15.294 3 13.6632 3 11.9999C3 10.3366 3.46019 8.70581 4.32965 7.28789M8.46765 13.2639C8.17629 12.4464 8.17629 11.5534 8.46765 10.7359M8.46765 10.7359C8.64865 10.2299 8.94265 9.75389 9.34765 9.34789C9.73926 8.95517 10.2134 8.65457 10.7356 8.46789M8.46765 10.7359L4.32965 7.28789M10.7356 8.46789L7.28765 4.32989M7.28765 4.32989C6.6879 4.69926 6.13346 5.13758 5.63565 5.63589C5.13734 6.13371 4.69902 6.68815 4.32965 7.28789" stroke="white" stroke-width="1.5" stroke-linecap="round" stroke-linejoin="round"/>
</svg>
