<svg width="24" height="24" viewBox="0 0 24 24" fill="none" xmlns="http://www.w3.org/2000/svg">
<path d="M6.71041 9.29008C6.61771 9.38259 6.54416 9.49248 6.49398 9.61345C6.4438 9.73442 6.41797 9.86411 6.41797 9.99508C6.41797 10.126 6.4438 10.2557 6.49398 10.3767C6.54416 10.4977 6.61771 10.6076 6.71041 10.7001L11.3004 15.2901C11.3929 15.3828 11.5028 15.4563 11.6238 15.5065C11.7448 15.5567 11.8744 15.5825 12.0054 15.5825C12.1364 15.5825 12.2661 15.5567 12.387 15.5065C12.508 15.4563 12.6179 15.3828 12.7104 15.2901L17.3004 10.7001C17.393 10.6075 17.4664 10.4976 17.5165 10.3766C17.5666 10.2557 17.5924 10.126 17.5924 9.99507C17.5924 9.86414 17.5666 9.7345 17.5165 9.61353C17.4664 9.49257 17.393 9.38266 17.3004 9.29007C17.2078 9.19749 17.0979 9.12405 16.977 9.07395C16.856 9.02384 16.7263 8.99805 16.5954 8.99805C16.4645 8.99805 16.3348 9.02384 16.2139 9.07395C16.0929 9.12405 15.983 9.19749 15.8904 9.29007L12.0004 13.1701L8.12041 9.29008C7.73041 8.90008 7.09041 8.91008 6.71041 9.29008Z" fill="white"/>
</svg>
