<svg width="24" height="24" viewBox="0 0 24 24" fill="none" xmlns="http://www.w3.org/2000/svg">
<path d="M10.342 3.94C10.432 3.398 10.902 3 11.452 3H12.545C13.095 3 13.565 3.398 13.655 3.94L13.804 4.834C13.874 5.258 14.188 5.598 14.584 5.764C14.982 5.928 15.439 5.906 15.789 5.656L16.526 5.129C16.7428 4.97405 17.0075 4.90107 17.2731 4.92305C17.5386 4.94502 17.7877 5.06053 17.976 5.249L18.749 6.023C19.139 6.412 19.189 7.025 18.869 7.473L18.342 8.21C18.092 8.56 18.07 9.016 18.235 9.414C18.4 9.811 18.74 10.124 19.165 10.194L20.058 10.344C20.601 10.434 20.998 10.904 20.998 11.453V12.547C20.998 13.097 20.601 13.567 20.058 13.657L19.165 13.806C18.74 13.876 18.4 14.189 18.235 14.586C18.07 14.984 18.092 15.44 18.342 15.79L18.869 16.528C19.189 16.975 19.138 17.588 18.749 17.978L17.975 18.751C17.7868 18.9392 17.5378 19.0546 17.2725 19.0765C17.0072 19.0985 16.7427 19.0257 16.526 18.871L15.788 18.344C15.438 18.094 14.982 18.072 14.585 18.237C14.188 18.402 13.875 18.742 13.804 19.166L13.655 20.06C13.565 20.602 13.095 21 12.545 21H11.451C10.901 21 10.432 20.602 10.341 20.06L10.193 19.166C10.122 18.742 9.80905 18.402 9.41205 18.236C9.01405 18.072 8.55805 18.094 8.20805 18.344L7.47005 18.871C7.02305 19.191 6.41005 19.14 6.02005 18.751L5.24705 17.977C5.05858 17.7887 4.94307 17.5395 4.92109 17.274C4.89912 17.0085 4.9721 16.7438 5.12705 16.527L5.65405 15.79C5.90405 15.44 5.92705 14.984 5.76205 14.586C5.59705 14.189 5.25705 13.876 4.83205 13.806L3.93805 13.656C3.39605 13.566 2.99805 13.096 2.99805 12.547V11.453C2.99805 10.903 3.39605 10.433 3.93805 10.343L4.83205 10.194C5.25605 10.124 5.59705 9.811 5.76205 9.414C5.92705 9.016 5.90505 8.56 5.65505 8.21L5.12805 7.472C4.9731 7.25524 4.90012 6.99053 4.92209 6.72499C4.94407 6.45945 5.05958 6.21034 5.24805 6.022L6.02105 5.249C6.20938 5.06053 6.4585 4.94502 6.72404 4.92305C6.98957 4.90107 7.25429 4.97405 7.47105 5.129L8.20805 5.656C8.55805 5.906 9.01505 5.928 9.41205 5.763C9.80905 5.598 10.122 5.258 10.192 4.834L10.342 3.94V3.94Z" stroke="white" stroke-width="1.5" stroke-linecap="round" stroke-linejoin="round"/>
<path d="M15 12C15 12.7956 14.6839 13.5587 14.1213 14.1213C13.5587 14.6839 12.7956 15 12 15C11.2044 15 10.4413 14.6839 9.87868 14.1213C9.31607 13.5587 9 12.7956 9 12C9 11.2044 9.31607 10.4413 9.87868 9.87868C10.4413 9.31607 11.2044 9 12 9C12.7956 9 13.5587 9.31607 14.1213 9.87868C14.6839 10.4413 15 11.2044 15 12V12Z" stroke="white" stroke-width="1.5" stroke-linecap="round" stroke-linejoin="round"/>
</svg>
