<svg width="24" height="24" viewBox="0 0 24 24" fill="none" xmlns="http://www.w3.org/2000/svg">
<path d="M14.999 19.128C15.852 19.3757 16.7358 19.5009 17.624 19.5C19.0525 19.5021 20.4623 19.1764 21.745 18.548C21.783 17.6517 21.5277 16.7675 21.0178 16.0293C20.508 15.2912 19.7714 14.7394 18.9198 14.4575C18.0681 14.1757 17.1477 14.1791 16.2982 14.4674C15.4487 14.7557 14.7163 15.313 14.212 16.055M14.999 19.128V19.125C14.999 18.012 14.714 16.965 14.213 16.055M14.999 19.128V19.234C13.0745 20.3931 10.8697 21.0038 8.62305 21C6.29205 21 4.11105 20.355 2.24905 19.234L2.24805 19.125C2.24728 17.7095 2.71766 16.3339 3.58503 15.2153C4.4524 14.0966 5.66742 13.2984 7.03854 12.9466C8.40965 12.5948 9.85887 12.7093 11.1577 13.2721C12.4566 13.8349 13.5311 14.814 14.212 16.055M11.999 6.375C11.999 7.27011 11.6435 8.12855 11.0105 8.76149C10.3776 9.39442 9.51915 9.75 8.62405 9.75C7.72894 9.75 6.8705 9.39442 6.23756 8.76149C5.60463 8.12855 5.24905 7.27011 5.24905 6.375C5.24905 5.47989 5.60463 4.62145 6.23756 3.98851C6.8705 3.35558 7.72894 3 8.62405 3C9.51915 3 10.3776 3.35558 11.0105 3.98851C11.6435 4.62145 11.999 5.47989 11.999 6.375V6.375ZM20.249 8.625C20.249 9.32119 19.9725 9.98887 19.4802 10.4812C18.9879 10.9734 18.3202 11.25 17.624 11.25C16.9279 11.25 16.2602 10.9734 15.7679 10.4812C15.2756 9.98887 14.999 9.32119 14.999 8.625C14.999 7.92881 15.2756 7.26113 15.7679 6.76884C16.2602 6.27656 16.9279 6 17.624 6C18.3202 6 18.9879 6.27656 19.4802 6.76884C19.9725 7.26113 20.249 7.92881 20.249 8.625V8.625Z" stroke="white" stroke-width="1.5" stroke-linecap="round" stroke-linejoin="round"/>
</svg>
